<?xml version="1.0" standalone="no"?>
<!DOCTYPE svg PUBLIC "-//W3C//DTD SVG 20010904//EN"
 "http://www.w3.org/TR/2001/REC-SVG-20010904/DTD/svg10.dtd">
<svg version="1.0" xmlns="http://www.w3.org/2000/svg"
 width="339.000000pt" height="226.000000pt" viewBox="0 0 339.000000 226.000000"
 preserveAspectRatio="xMidYMid meet">

<g transform="translate(0.000000,226.000000) scale(0.100000,-0.100000)"
fill="#000000" stroke="none">
<path d="M0 1130 l0 -1130 1695 0 1695 0 0 1130 0 1130 -1695 0 -1695 0 0
-1130z m2017 505 c27 -8 58 -24 68 -35 17 -19 17 -22 2 -37 -11 -12 -20 -13
-29 -6 -20 16 -75 25 -108 18 -26 -6 -30 -11 -30 -39 0 -22 -11 -48 -34 -77
-106 -140 -234 -373 -281 -514 -35 -102 -37 -204 -6 -246 25 -34 22 -59 -8
-59 -27 0 -105 90 -120 140 -11 37 -14 103 -8 195 2 36 -21 50 -108 63 l-60
10 -60 -56 c-153 -142 -330 -246 -472 -278 -57 -12 -101 -15 -172 -11 -120 7
-161 21 -216 69 -103 91 -66 219 90 313 76 46 221 92 349 111 124 19 373 14
456 -9 l55 -15 175 178 c188 191 277 259 370 284 71 19 86 19 147 1z m638 -39
c42 -18 69 -66 60 -107 -4 -19 -44 -69 -110 -138 -113 -118 -136 -154 -145
-221 l-5 -45 -38 36 c-33 33 -37 43 -37 86 0 68 39 142 117 221 55 56 59 63
35 58 -117 -28 -434 -252 -420 -298 2 -7 46 -34 98 -60 111 -56 146 -88 161
-142 41 -151 -179 -288 -439 -274 -159 9 -262 69 -302 175 -11 31 -18 58 -16
61 3 2 21 -9 40 -25 45 -40 104 -61 201 -71 119 -13 225 0 301 38 61 30 114
78 114 104 0 21 -31 43 -104 72 -46 18 -86 44 -118 74 -42 40 -48 52 -48 87 0
87 57 163 185 248 170 113 367 164 470 121z"/>
<path d="M1772 1500 c-34 -22 -133 -109 -219 -195 -139 -137 -156 -156 -140
-166 10 -6 33 -24 52 -40 l34 -30 17 33 c45 88 193 288 307 416 29 31 19 28
-51 -18z"/>
<path d="M1010 1044 c-14 -2 -59 -9 -100 -15 -260 -37 -450 -120 -450 -196 0
-43 51 -63 161 -63 204 0 316 51 554 254 l30 25 -85 -1 c-47 0 -96 -2 -110 -4z"/>
</g>
</svg>
