<?xml version="1.0" standalone="no"?>
<!DOCTYPE svg PUBLIC "-//W3C//DTD SVG 20010904//EN"
 "http://www.w3.org/TR/2001/REC-SVG-20010904/DTD/svg10.dtd">
<svg version="1.0" xmlns="http://www.w3.org/2000/svg"
 width="245.000000pt" height="148.000000pt" viewBox="0 0 245.000000 148.000000"
 preserveAspectRatio="xMidYMid meet">

<g transform="translate(0.000000,148.000000) scale(0.100000,-0.100000)"
fill="#000000" stroke="none">
<path d="M1528 1191 c-81 -32 -166 -103 -343 -280 l-169 -172 -69 16 c-160 36
-396 28 -579 -21 -301 -80 -439 -253 -308 -384 52 -52 124 -73 255 -74 193 -1
359 75 583 267 l93 80 71 -13 c90 -16 111 -34 96 -87 -15 -54 -4 -143 25 -206
28 -62 90 -118 109 -99 9 9 6 23 -10 55 -29 59 -28 126 4 229 46 145 139 316
294 538 25 37 30 51 25 78 l-6 34 63 -5 c35 -3 75 -8 91 -12 23 -6 27 -4 27
14 0 51 -162 79 -252 42z m1 -90 c-8 -10 -52 -63 -98 -117 -88 -105 -157 -202
-210 -296 l-33 -58 -31 31 c-16 17 -41 35 -54 40 -24 9 -22 12 64 105 123 133
266 259 338 297 39 21 40 21 24 -2z m-689 -532 c-88 -81 -218 -167 -297 -196
-80 -29 -231 -49 -297 -39 -34 5 -58 16 -78 37 -28 28 -28 29 -13 59 19 36 86
81 162 110 110 41 380 85 538 88 l50 1 -65 -60z"/>
<path d="M2135 1160 c-272 -72 -486 -272 -432 -403 19 -43 67 -80 153 -117
113 -48 130 -78 72 -132 -75 -70 -193 -103 -338 -95 -113 7 -182 26 -238 67
-45 33 -48 31 -31 -21 30 -89 117 -147 255 -171 133 -22 331 27 419 103 47 42
65 78 65 133 0 66 -45 112 -166 170 -74 36 -94 50 -94 66 0 62 300 272 435
304 27 7 23 1 -42 -67 -80 -82 -123 -159 -123 -220 0 -29 8 -46 34 -74 l33
-37 7 40 c12 61 50 117 157 230 90 95 99 108 99 142 0 91 -108 124 -265 82z"/>
</g>
</svg>
